<?xml version="1.0" encoding="UTF-8"?>
<!DOCTYPE svg PUBLIC "-//W3C//DTD SVG 1.1//EN" "http://www.w3.org/Graphics/SVG/1.1/DTD/svg11.dtd">
<!-- Creator: CorelDRAW 2019 (64-Bit Evaluation Version) -->
<svg xmlns="http://www.w3.org/2000/svg" xml:space="preserve" width="6.60789in" height="3.20509in" version="1.1" style="shape-rendering:geometricPrecision; text-rendering:geometricPrecision; image-rendering:optimizeQuality; fill-rule:evenodd; clip-rule:evenodd"
viewBox="0 0 6602.28 3202.37"
 xmlns:xlink="http://www.w3.org/1999/xlink"
 xmlns:xodm="http://www.corel.com/coreldraw/odm/2003">
 <defs>
  <style type="text/css">
   <![CDATA[
    .fil0 {fill:black}
    .fil1 {fill:black;fill-rule:nonzero}
   ]]>
  </style>
 </defs>
 <g id="Layer_x0020_1">
  <metadata id="CorelCorpID_0Corel-Layer"/>
  <g id="_2114108719232">
   <path class="fil0" d="M5.33 2425.02l2425.02 -2425.02 742.43 742.43 -408.5 408.5 -333.93 -333.92 -1025.18 1025.18 667.85 0 -582.84 582.84 -1484.86 0zm6591.62 0l-2425.02 -2425.02 -742.42 742.42 408.5 408.5 333.92 -333.92 1025.18 1025.18 -667.84 0 582.84 582.84 1484.85 0zm-3295.81 -1554.24l-0 0 -408.5 408.5 -0 0 149.18 149.18 -413.72 413.72 -298.35 0 -582.84 582.84 817 0 737.23 -737.23 737.23 737.23 817 0 -582.84 -582.84 -298.35 0 -413.72 -413.72 149.18 -149.18 0 -0 -408.5 -408.5z"/>
   <path class="fil1" d="M-0 3198.45l0 -464.05 45.75 0 0 423.53 267.97 0 0 40.52 -313.72 0zm791.83 3.27c-32.24,0 -61.76,-6.64 -88.56,-19.94 -26.8,-13.29 -49.78,-30.93 -68.95,-52.94 -19.17,-22 -33.99,-47.17 -44.44,-75.49 -10.46,-28.32 -15.69,-57.3 -15.69,-86.93 0,-30.93 5.56,-60.57 16.67,-88.89 11.11,-28.32 26.47,-53.38 46.08,-75.16 19.61,-21.79 42.7,-39.11 69.28,-51.96 26.58,-12.86 55.34,-19.28 86.27,-19.28 32.24,0 61.77,6.86 88.56,20.59 26.8,13.72 49.67,31.7 68.63,53.92 18.95,22.22 33.66,47.38 44.12,75.49 10.46,28.11 15.69,56.75 15.69,85.95 0,30.94 -5.56,60.57 -16.67,88.89 -11.11,28.32 -26.36,53.27 -45.75,74.83 -19.39,21.57 -42.37,38.78 -68.95,51.63 -26.58,12.86 -55.33,19.28 -86.27,19.28zm-171.89 -235.29c0,25.27 4.14,49.56 12.42,72.88 8.28,23.31 20.04,44.01 35.29,62.09 15.25,18.08 33.33,32.46 54.25,43.14 20.92,10.68 44.23,16.01 69.93,16.01 26.14,0 49.89,-5.66 71.24,-16.99 21.35,-11.33 39.43,-26.14 54.25,-44.44 14.81,-18.3 26.25,-39 34.31,-62.09 8.06,-23.09 12.09,-46.62 12.09,-70.59 0,-25.27 -4.25,-49.56 -12.75,-72.88 -8.5,-23.31 -20.37,-43.9 -35.62,-61.76 -15.25,-17.87 -33.33,-32.13 -54.25,-42.81 -20.92,-10.68 -44.01,-16.01 -69.28,-16.01 -26.14,0 -49.89,5.55 -71.24,16.67 -21.35,11.11 -39.43,25.82 -54.25,44.12 -14.81,18.3 -26.25,39 -34.31,62.09 -8.06,23.09 -12.09,46.62 -12.09,70.59zm729.09 232.02l0 -464.05 196.07 0c20.04,0 38.45,4.25 55.23,12.75 16.78,8.5 31.26,19.61 43.46,33.33 12.2,13.72 21.68,29.3 28.43,46.73 6.75,17.43 10.13,35.07 10.13,52.94 0,16.99 -2.51,33.22 -7.52,48.69 -5.01,15.47 -11.98,29.41 -20.92,41.83 -8.93,12.42 -19.72,22.87 -32.35,31.37 -12.63,8.5 -26.8,14.27 -42.48,17.32l113.72 179.08 -51.63 0 -109.15 -171.24 -137.25 0 0 171.24 -45.75 0zm45.75 -211.76l151.63 0c13.51,0 25.82,-2.94 36.93,-8.82 11.11,-5.88 20.59,-13.83 28.43,-23.86 7.84,-10.02 13.94,-21.35 18.3,-33.99 4.36,-12.63 6.53,-25.92 6.53,-39.87 0,-13.94 -2.51,-27.34 -7.51,-40.19 -5.01,-12.86 -11.77,-24.07 -20.26,-33.66 -8.5,-9.59 -18.52,-17.21 -30.07,-22.88 -11.55,-5.66 -23.64,-8.49 -36.27,-8.49l-147.71 0 0 211.76zm946.07 171.24l0 40.52 -311.76 0 0 -464.05 305.88 0 0 40.52 -260.13 0 0 167.31 226.8 0 0 38.56 -226.8 0 0 177.13 266.01 0zm750.65 40.52l0 -381.04 -169.28 294.77 -26.8 0 -169.28 -294.77 0 381.04 -45.75 0 0 -464.05 47.05 0 181.05 317.64 182.35 -317.64 46.41 0 0 464.05 -45.75 0zm582.03 0l0 -464.05 45.75 0 0 464.05 -45.75 0zm415.36 0l0 -464.05 192.15 0c20.05,0 38.45,4.25 55.23,12.75 16.78,8.5 31.26,19.61 43.46,33.33 12.2,13.72 21.79,29.3 28.76,46.73 6.97,17.43 10.46,35.07 10.46,52.94 0,19.17 -3.26,37.58 -9.8,55.23 -6.54,17.65 -15.69,33.22 -27.45,46.73 -11.77,13.5 -25.82,24.4 -42.16,32.68 -16.34,8.28 -34.53,12.42 -54.58,12.42l-150.33 0 0 171.24 -45.75 0zm45.75 -211.76l148.37 0c13.5,0 25.82,-2.94 36.93,-8.82 11.11,-5.88 20.59,-13.72 28.43,-23.53 7.84,-9.8 13.94,-21.13 18.3,-33.99 4.36,-12.85 6.54,-26.25 6.54,-40.19 0,-14.38 -2.51,-28 -7.52,-40.85 -5.01,-12.85 -11.77,-24.07 -20.26,-33.66 -8.5,-9.59 -18.52,-17.1 -30.07,-22.55 -11.55,-5.44 -23.64,-8.17 -36.27,-8.17l-144.44 0 0 211.76zm885.3 -165.36c-13.07,-14.81 -30.5,-26.8 -52.29,-35.95 -21.78,-9.15 -46.62,-13.72 -74.51,-13.72 -40.96,0 -70.81,7.73 -89.54,23.2 -18.74,15.47 -28.1,36.49 -28.1,63.07 0,13.94 2.51,25.38 7.52,34.31 5.01,8.93 12.74,16.67 23.2,23.2 10.46,6.54 23.85,12.2 40.19,16.99 16.34,4.8 35.62,9.59 57.84,14.38 24.83,5.23 47.16,11.11 66.99,17.65 19.83,6.53 36.71,14.7 50.65,24.51 13.94,9.81 24.62,21.68 32.03,35.62 7.41,13.94 11.11,31.37 11.11,52.29 0,21.35 -4.14,39.87 -12.42,55.56 -8.28,15.68 -19.83,28.76 -34.64,39.21 -14.81,10.46 -32.46,18.19 -52.94,23.2 -20.48,5.01 -42.92,7.52 -67.32,7.52 -71.9,0 -133.98,-22.44 -186.27,-67.32l22.87 -37.25c8.28,8.71 18.19,16.99 29.74,24.83 11.55,7.84 24.4,14.71 38.56,20.59 14.16,5.88 29.3,10.46 45.43,13.72 16.12,3.27 33.11,4.9 50.98,4.9 37.04,0 65.9,-6.64 86.6,-19.93 20.7,-13.29 31.04,-33.44 31.04,-60.46 0,-14.38 -2.94,-26.47 -8.82,-36.28 -5.88,-9.8 -14.71,-18.3 -26.47,-25.49 -11.77,-7.19 -26.36,-13.4 -43.79,-18.63 -17.43,-5.23 -37.69,-10.46 -60.78,-15.69 -24.4,-5.66 -45.75,-11.55 -64.05,-17.65 -18.3,-6.1 -33.77,-13.72 -46.4,-22.87 -12.64,-9.15 -22.12,-20.15 -28.43,-33.01 -6.32,-12.85 -9.48,-28.65 -9.48,-47.38 0,-21.35 4.03,-40.41 12.09,-57.19 8.06,-16.78 19.5,-30.72 34.31,-41.83 14.81,-11.11 32.24,-19.61 52.29,-25.49 20.04,-5.88 42.26,-8.82 66.66,-8.82 30.94,0 58.5,4.68 82.68,14.05 24.18,9.37 46.08,22.55 65.68,39.54l-22.22 36.6zm566.99 339.21c29.2,0 53.49,-5.55 72.88,-16.67 19.39,-11.11 34.86,-25.71 46.41,-43.79 11.55,-18.08 19.61,-38.67 24.18,-61.76 4.57,-23.09 6.86,-46.41 6.86,-69.94l0 -233.98 45.75 0 0 233.98c0,31.37 -3.49,61.11 -10.46,89.22 -6.97,28.11 -18.19,52.83 -33.66,74.18 -15.47,21.35 -35.62,38.35 -60.46,50.98 -24.84,12.64 -55.12,18.96 -90.85,18.96 -36.6,0 -67.43,-6.64 -92.48,-19.94 -25.05,-13.29 -45.21,-30.83 -60.46,-52.61 -15.25,-21.79 -26.14,-46.62 -32.68,-74.51 -6.53,-27.89 -9.8,-56.64 -9.8,-86.28l0 -233.98 45.1 0 0 233.98c0,24.4 2.4,48.15 7.19,71.24 4.8,23.09 12.97,43.57 24.51,61.44 11.55,17.87 26.91,32.24 46.08,43.14 19.17,10.9 43.14,16.34 71.89,16.34zm969.61 37.91l0 -381.04 -169.28 294.77 -26.8 0 -169.28 -294.77 0 381.04 -45.75 0 0 -464.05 47.05 0 181.05 317.64 182.35 -317.64 46.41 0 0 464.05 -45.75 0z"/>
  </g>
 </g>
</svg>
